<mxfile host="app.diagrams.net" modified="2024-05-29T08:37:08.085Z" agent="Mozilla/5.0 (Windows NT 10.0; Win64; x64) AppleWebKit/537.36 (KHTML, like Gecko) Chrome/125.0.0.0 Safari/537.36" etag="s4rbeQNPBN5cCI3651yU" version="24.4.9" type="device" pages="6">
  <diagram name="Trackpage" id="5IuPwUd1LFRuiMdlLoKF">
    <mxGraphModel dx="2238" dy="1160" grid="1" gridSize="10" guides="1" tooltips="1" connect="1" arrows="1" fold="1" page="1" pageScale="1" pageWidth="1600" pageHeight="900" math="0" shadow="0">
      <root>
        <mxCell id="0" />
        <mxCell id="1" parent="0" />
        <mxCell id="etttvBGzIi5JcFdXr7X--3" value="&lt;font style=&quot;font-size: 29px;&quot;&gt;Track title&lt;/font&gt;" style="rounded=0;whiteSpace=wrap;html=1;" vertex="1" parent="1">
          <mxGeometry x="120" y="690" width="500" height="50" as="geometry" />
        </mxCell>
        <mxCell id="etttvBGzIi5JcFdXr7X--7" value="" style="group" vertex="1" connectable="0" parent="1">
          <mxGeometry x="120" y="160" width="500" height="500" as="geometry" />
        </mxCell>
        <mxCell id="etttvBGzIi5JcFdXr7X--2" value="" style="rounded=0;whiteSpace=wrap;html=1;" vertex="1" parent="etttvBGzIi5JcFdXr7X--7">
          <mxGeometry width="500" height="500" as="geometry" />
        </mxCell>
        <mxCell id="etttvBGzIi5JcFdXr7X--5" value="" style="shape=collate;whiteSpace=wrap;html=1;" vertex="1" parent="etttvBGzIi5JcFdXr7X--7">
          <mxGeometry width="500" height="500" as="geometry" />
        </mxCell>
        <mxCell id="etttvBGzIi5JcFdXr7X--9" value="&lt;font style=&quot;font-size: 34px;&quot;&gt;Track information&lt;/font&gt;" style="rounded=0;whiteSpace=wrap;html=1;" vertex="1" parent="1">
          <mxGeometry x="690" y="160" width="790" height="290" as="geometry" />
        </mxCell>
        <mxCell id="etttvBGzIi5JcFdXr7X--10" value="&lt;span style=&quot;font-size: 34px;&quot;&gt;Times set on track (list)&lt;/span&gt;" style="rounded=0;whiteSpace=wrap;html=1;" vertex="1" parent="1">
          <mxGeometry x="690" y="480" width="790" height="420" as="geometry" />
        </mxCell>
        <mxCell id="sisbo-MzVVzEHerKrxkz-2" value="" style="group" vertex="1" connectable="0" parent="1">
          <mxGeometry width="1600" height="120" as="geometry" />
        </mxCell>
        <mxCell id="etttvBGzIi5JcFdXr7X--1" value="" style="swimlane;startSize=0;" vertex="1" parent="sisbo-MzVVzEHerKrxkz-2">
          <mxGeometry width="1600" height="120" as="geometry" />
        </mxCell>
        <mxCell id="etttvBGzIi5JcFdXr7X--11" value="&lt;font style=&quot;font-size: 30px;&quot;&gt;Home&lt;/font&gt;" style="rounded=0;whiteSpace=wrap;html=1;" vertex="1" parent="etttvBGzIi5JcFdXr7X--1">
          <mxGeometry width="220" height="120" as="geometry" />
        </mxCell>
        <mxCell id="etttvBGzIi5JcFdXr7X--12" value="&lt;font style=&quot;font-size: 30px;&quot;&gt;Tracks&lt;/font&gt;" style="rounded=0;whiteSpace=wrap;html=1;" vertex="1" parent="etttvBGzIi5JcFdXr7X--1">
          <mxGeometry x="220" width="220" height="120" as="geometry" />
        </mxCell>
        <mxCell id="etttvBGzIi5JcFdXr7X--13" value="&lt;font style=&quot;font-size: 30px;&quot;&gt;Users&lt;/font&gt;" style="rounded=0;whiteSpace=wrap;html=1;" vertex="1" parent="etttvBGzIi5JcFdXr7X--1">
          <mxGeometry x="440" width="220" height="120" as="geometry" />
        </mxCell>
        <mxCell id="etttvBGzIi5JcFdXr7X--14" value="&lt;font style=&quot;font-size: 30px;&quot;&gt;My account&lt;/font&gt;" style="rounded=0;whiteSpace=wrap;html=1;" vertex="1" parent="etttvBGzIi5JcFdXr7X--1">
          <mxGeometry x="660" width="220" height="120" as="geometry" />
        </mxCell>
        <mxCell id="sisbo-MzVVzEHerKrxkz-1" value="" style="rounded=0;whiteSpace=wrap;html=1;" vertex="1" parent="sisbo-MzVVzEHerKrxkz-2">
          <mxGeometry x="880" width="720" height="120" as="geometry" />
        </mxCell>
      </root>
    </mxGraphModel>
  </diagram>
  <diagram id="mi6vq3f-oKa0J-PV8G7c" name="Homepage">
    <mxGraphModel dx="2014" dy="1044" grid="1" gridSize="10" guides="1" tooltips="1" connect="1" arrows="1" fold="1" page="1" pageScale="1" pageWidth="1600" pageHeight="900" math="0" shadow="0">
      <root>
        <mxCell id="0" />
        <mxCell id="1" parent="0" />
        <mxCell id="un1azu7PHvUyu_om3pax-10" value="&lt;span style=&quot;font-size: 34px;&quot;&gt;Welcome message&lt;/span&gt;" style="rounded=0;whiteSpace=wrap;html=1;" vertex="1" parent="1">
          <mxGeometry x="310" y="160" width="980" height="280" as="geometry" />
        </mxCell>
        <mxCell id="9x-5HnkXdWbgtm1aQjVf-2" value="" style="group" vertex="1" connectable="0" parent="1">
          <mxGeometry width="1600" height="120" as="geometry" />
        </mxCell>
        <mxCell id="un1azu7PHvUyu_om3pax-1" value="" style="swimlane;startSize=0;" vertex="1" parent="9x-5HnkXdWbgtm1aQjVf-2">
          <mxGeometry width="1600" height="120" as="geometry" />
        </mxCell>
        <mxCell id="un1azu7PHvUyu_om3pax-2" value="&lt;font style=&quot;font-size: 30px;&quot;&gt;Home&lt;/font&gt;" style="rounded=0;whiteSpace=wrap;html=1;" vertex="1" parent="un1azu7PHvUyu_om3pax-1">
          <mxGeometry width="220" height="120" as="geometry" />
        </mxCell>
        <mxCell id="un1azu7PHvUyu_om3pax-3" value="&lt;font style=&quot;font-size: 30px;&quot;&gt;Tracks&lt;/font&gt;" style="rounded=0;whiteSpace=wrap;html=1;" vertex="1" parent="un1azu7PHvUyu_om3pax-1">
          <mxGeometry x="220" width="220" height="120" as="geometry" />
        </mxCell>
        <mxCell id="un1azu7PHvUyu_om3pax-4" value="&lt;font style=&quot;font-size: 30px;&quot;&gt;Users&lt;/font&gt;" style="rounded=0;whiteSpace=wrap;html=1;" vertex="1" parent="un1azu7PHvUyu_om3pax-1">
          <mxGeometry x="440" width="220" height="120" as="geometry" />
        </mxCell>
        <mxCell id="un1azu7PHvUyu_om3pax-5" value="&lt;font style=&quot;font-size: 30px;&quot;&gt;My account&lt;/font&gt;" style="rounded=0;whiteSpace=wrap;html=1;" vertex="1" parent="un1azu7PHvUyu_om3pax-1">
          <mxGeometry x="660" width="220" height="120" as="geometry" />
        </mxCell>
        <mxCell id="9x-5HnkXdWbgtm1aQjVf-1" value="" style="rounded=0;whiteSpace=wrap;html=1;" vertex="1" parent="9x-5HnkXdWbgtm1aQjVf-2">
          <mxGeometry x="880" width="720" height="120" as="geometry" />
        </mxCell>
        <mxCell id="HXz0Sk0A3uFO9nQaV0ys-1" value="" style="group" vertex="1" connectable="0" parent="1">
          <mxGeometry x="310" y="530" width="980" height="620" as="geometry" />
        </mxCell>
        <mxCell id="HXz0Sk0A3uFO9nQaV0ys-2" value="Track title" style="swimlane;whiteSpace=wrap;html=1;startSize=50;" vertex="1" parent="HXz0Sk0A3uFO9nQaV0ys-1">
          <mxGeometry width="300" height="295.23809523809524" as="geometry" />
        </mxCell>
        <mxCell id="HXz0Sk0A3uFO9nQaV0ys-3" value="Track title" style="swimlane;whiteSpace=wrap;html=1;startSize=50;" vertex="1" parent="HXz0Sk0A3uFO9nQaV0ys-1">
          <mxGeometry x="340" width="305" height="295.23809523809524" as="geometry" />
        </mxCell>
        <mxCell id="HXz0Sk0A3uFO9nQaV0ys-4" value="" style="endArrow=none;html=1;rounded=0;entryX=0.999;entryY=0.169;entryDx=0;entryDy=0;entryPerimeter=0;exitX=0;exitY=1;exitDx=0;exitDy=0;" edge="1" parent="HXz0Sk0A3uFO9nQaV0ys-3">
          <mxGeometry width="50" height="50" relative="1" as="geometry">
            <mxPoint y="295.23809523809524" as="sourcePoint" />
            <mxPoint x="300" y="50.19047619047619" as="targetPoint" />
          </mxGeometry>
        </mxCell>
        <mxCell id="HXz0Sk0A3uFO9nQaV0ys-5" value="" style="endArrow=none;html=1;rounded=0;entryX=1;entryY=1;entryDx=0;entryDy=0;" edge="1" parent="HXz0Sk0A3uFO9nQaV0ys-3">
          <mxGeometry width="50" height="50" relative="1" as="geometry">
            <mxPoint y="49.20634920634921" as="sourcePoint" />
            <mxPoint x="300" y="295.23809523809524" as="targetPoint" />
          </mxGeometry>
        </mxCell>
        <mxCell id="HXz0Sk0A3uFO9nQaV0ys-6" value="Track title" style="swimlane;whiteSpace=wrap;html=1;startSize=50;" vertex="1" parent="HXz0Sk0A3uFO9nQaV0ys-1">
          <mxGeometry x="680" width="300" height="295.23809523809524" as="geometry" />
        </mxCell>
        <mxCell id="HXz0Sk0A3uFO9nQaV0ys-7" value="" style="endArrow=none;html=1;rounded=0;entryX=0.999;entryY=0.169;entryDx=0;entryDy=0;entryPerimeter=0;exitX=0;exitY=1;exitDx=0;exitDy=0;" edge="1" parent="HXz0Sk0A3uFO9nQaV0ys-6">
          <mxGeometry width="50" height="50" relative="1" as="geometry">
            <mxPoint y="295.23809523809524" as="sourcePoint" />
            <mxPoint x="300" y="50.19047619047619" as="targetPoint" />
          </mxGeometry>
        </mxCell>
        <mxCell id="HXz0Sk0A3uFO9nQaV0ys-8" value="" style="endArrow=none;html=1;rounded=0;entryX=1;entryY=1;entryDx=0;entryDy=0;" edge="1" parent="HXz0Sk0A3uFO9nQaV0ys-6">
          <mxGeometry width="50" height="50" relative="1" as="geometry">
            <mxPoint y="49.20634920634921" as="sourcePoint" />
            <mxPoint x="300" y="295.23809523809524" as="targetPoint" />
          </mxGeometry>
        </mxCell>
        <mxCell id="HXz0Sk0A3uFO9nQaV0ys-18" value="" style="endArrow=none;html=1;rounded=0;entryX=0.999;entryY=0.169;entryDx=0;entryDy=0;entryPerimeter=0;exitX=0;exitY=1;exitDx=0;exitDy=0;" edge="1" parent="HXz0Sk0A3uFO9nQaV0ys-1" source="HXz0Sk0A3uFO9nQaV0ys-2" target="HXz0Sk0A3uFO9nQaV0ys-2">
          <mxGeometry width="50" height="50" relative="1" as="geometry">
            <mxPoint x="240" y="373.968253968254" as="sourcePoint" />
            <mxPoint x="290" y="324.76190476190476" as="targetPoint" />
          </mxGeometry>
        </mxCell>
        <mxCell id="HXz0Sk0A3uFO9nQaV0ys-19" value="" style="endArrow=none;html=1;rounded=0;entryX=1;entryY=1;entryDx=0;entryDy=0;" edge="1" parent="HXz0Sk0A3uFO9nQaV0ys-1" target="HXz0Sk0A3uFO9nQaV0ys-2">
          <mxGeometry width="50" height="50" relative="1" as="geometry">
            <mxPoint y="49.2063492063492" as="sourcePoint" />
            <mxPoint x="310" y="60.03174603174603" as="targetPoint" />
          </mxGeometry>
        </mxCell>
        <mxCell id="HXz0Sk0A3uFO9nQaV0ys-20" value="&lt;font style=&quot;font-size: 41px;&quot;&gt;Featured tracks&lt;/font&gt;" style="text;html=1;align=center;verticalAlign=middle;resizable=0;points=[];autosize=1;strokeColor=none;fillColor=none;" vertex="1" parent="1">
          <mxGeometry x="645" y="450" width="310" height="60" as="geometry" />
        </mxCell>
      </root>
    </mxGraphModel>
  </diagram>
  <diagram id="Jc6qSKZQtgkD2aUO0nG1" name="Track-overviewpage-1">
    <mxGraphModel dx="2877" dy="1491" grid="1" gridSize="10" guides="1" tooltips="1" connect="1" arrows="1" fold="1" page="1" pageScale="1" pageWidth="1600" pageHeight="900" math="0" shadow="0">
      <root>
        <mxCell id="0" />
        <mxCell id="1" parent="0" />
        <mxCell id="b1_TiumlRNofdH8BZ-Wj-8" value="" style="group" vertex="1" connectable="0" parent="1">
          <mxGeometry x="230" y="220" width="1140" height="520" as="geometry" />
        </mxCell>
        <mxCell id="b1_TiumlRNofdH8BZ-Wj-6" value="&lt;span style=&quot;font-size: 34px;&quot;&gt;Campaign Tracks&lt;/span&gt;" style="rounded=0;whiteSpace=wrap;html=1;" vertex="1" parent="b1_TiumlRNofdH8BZ-Wj-8">
          <mxGeometry width="520" height="520" as="geometry" />
        </mxCell>
        <mxCell id="b1_TiumlRNofdH8BZ-Wj-7" value="&lt;span style=&quot;font-size: 34px;&quot;&gt;Player made tracks&lt;/span&gt;" style="rounded=0;whiteSpace=wrap;html=1;" vertex="1" parent="b1_TiumlRNofdH8BZ-Wj-8">
          <mxGeometry x="620" width="520" height="520" as="geometry" />
        </mxCell>
        <mxCell id="b1_TiumlRNofdH8BZ-Wj-11" value="" style="endArrow=none;html=1;rounded=0;entryX=1;entryY=0;entryDx=0;entryDy=0;exitX=0;exitY=1;exitDx=0;exitDy=0;" edge="1" parent="b1_TiumlRNofdH8BZ-Wj-8" source="b1_TiumlRNofdH8BZ-Wj-7" target="b1_TiumlRNofdH8BZ-Wj-7">
          <mxGeometry width="50" height="50" relative="1" as="geometry">
            <mxPoint x="650" y="290" as="sourcePoint" />
            <mxPoint x="700" y="240" as="targetPoint" />
            <Array as="points" />
          </mxGeometry>
        </mxCell>
        <mxCell id="b1_TiumlRNofdH8BZ-Wj-12" value="" style="endArrow=none;html=1;rounded=0;entryX=1;entryY=0;entryDx=0;entryDy=0;exitX=0;exitY=1;exitDx=0;exitDy=0;" edge="1" parent="b1_TiumlRNofdH8BZ-Wj-8">
          <mxGeometry width="50" height="50" relative="1" as="geometry">
            <mxPoint y="520" as="sourcePoint" />
            <mxPoint x="520" as="targetPoint" />
            <Array as="points" />
          </mxGeometry>
        </mxCell>
        <mxCell id="b1_TiumlRNofdH8BZ-Wj-13" value="" style="endArrow=none;html=1;rounded=0;entryX=1;entryY=1;entryDx=0;entryDy=0;exitX=0;exitY=0;exitDx=0;exitDy=0;" edge="1" parent="b1_TiumlRNofdH8BZ-Wj-8" source="b1_TiumlRNofdH8BZ-Wj-7" target="b1_TiumlRNofdH8BZ-Wj-7">
          <mxGeometry width="50" height="50" relative="1" as="geometry">
            <mxPoint x="640" y="540" as="sourcePoint" />
            <mxPoint x="1160" y="20" as="targetPoint" />
            <Array as="points" />
          </mxGeometry>
        </mxCell>
        <mxCell id="b1_TiumlRNofdH8BZ-Wj-14" value="" style="endArrow=none;html=1;rounded=0;entryX=1;entryY=1;entryDx=0;entryDy=0;exitX=0;exitY=0;exitDx=0;exitDy=0;" edge="1" parent="b1_TiumlRNofdH8BZ-Wj-8" source="b1_TiumlRNofdH8BZ-Wj-6" target="b1_TiumlRNofdH8BZ-Wj-6">
          <mxGeometry width="50" height="50" relative="1" as="geometry">
            <mxPoint x="10" y="530" as="sourcePoint" />
            <mxPoint x="530" y="10" as="targetPoint" />
            <Array as="points" />
          </mxGeometry>
        </mxCell>
        <mxCell id="7qScerjaR1wzx2zHUas9-1" value="" style="group" vertex="1" connectable="0" parent="1">
          <mxGeometry width="1600" height="120" as="geometry" />
        </mxCell>
        <mxCell id="b1_TiumlRNofdH8BZ-Wj-1" value="" style="swimlane;startSize=0;" vertex="1" parent="7qScerjaR1wzx2zHUas9-1">
          <mxGeometry width="1600" height="120" as="geometry" />
        </mxCell>
        <mxCell id="b1_TiumlRNofdH8BZ-Wj-2" value="&lt;font style=&quot;font-size: 30px;&quot;&gt;Home&lt;/font&gt;" style="rounded=0;whiteSpace=wrap;html=1;" vertex="1" parent="b1_TiumlRNofdH8BZ-Wj-1">
          <mxGeometry width="220" height="120" as="geometry" />
        </mxCell>
        <mxCell id="b1_TiumlRNofdH8BZ-Wj-3" value="&lt;font style=&quot;font-size: 30px;&quot;&gt;Tracks&lt;/font&gt;" style="rounded=0;whiteSpace=wrap;html=1;" vertex="1" parent="b1_TiumlRNofdH8BZ-Wj-1">
          <mxGeometry x="220" width="220" height="120" as="geometry" />
        </mxCell>
        <mxCell id="b1_TiumlRNofdH8BZ-Wj-4" value="&lt;font style=&quot;font-size: 30px;&quot;&gt;Users&lt;/font&gt;" style="rounded=0;whiteSpace=wrap;html=1;" vertex="1" parent="b1_TiumlRNofdH8BZ-Wj-1">
          <mxGeometry x="440" width="220" height="120" as="geometry" />
        </mxCell>
        <mxCell id="b1_TiumlRNofdH8BZ-Wj-5" value="&lt;font style=&quot;font-size: 30px;&quot;&gt;My account&lt;/font&gt;" style="rounded=0;whiteSpace=wrap;html=1;" vertex="1" parent="b1_TiumlRNofdH8BZ-Wj-1">
          <mxGeometry x="660" width="220" height="120" as="geometry" />
        </mxCell>
        <mxCell id="-soLNmgVjyr8k9VhWw0--1" value="" style="rounded=0;whiteSpace=wrap;html=1;" vertex="1" parent="7qScerjaR1wzx2zHUas9-1">
          <mxGeometry x="880" width="720" height="120" as="geometry" />
        </mxCell>
      </root>
    </mxGraphModel>
  </diagram>
  <diagram id="jOuHbpV67zZwVzcN-pHd" name="Track-overviewpage-2">
    <mxGraphModel dx="2014" dy="1044" grid="1" gridSize="10" guides="1" tooltips="1" connect="1" arrows="1" fold="1" page="1" pageScale="1" pageWidth="1600" pageHeight="900" math="0" shadow="0">
      <root>
        <mxCell id="0" />
        <mxCell id="1" parent="0" />
        <mxCell id="nU5WEO-pyRfhEYbGFnps-1" value="" style="swimlane;startSize=0;" vertex="1" parent="1">
          <mxGeometry width="1600" height="120" as="geometry" />
        </mxCell>
        <mxCell id="nU5WEO-pyRfhEYbGFnps-2" value="&lt;font style=&quot;font-size: 30px;&quot;&gt;Home&lt;/font&gt;" style="rounded=0;whiteSpace=wrap;html=1;" vertex="1" parent="nU5WEO-pyRfhEYbGFnps-1">
          <mxGeometry width="220" height="120" as="geometry" />
        </mxCell>
        <mxCell id="nU5WEO-pyRfhEYbGFnps-3" value="&lt;font style=&quot;font-size: 30px;&quot;&gt;Tracks&lt;/font&gt;" style="rounded=0;whiteSpace=wrap;html=1;" vertex="1" parent="nU5WEO-pyRfhEYbGFnps-1">
          <mxGeometry x="220" width="220" height="120" as="geometry" />
        </mxCell>
        <mxCell id="nU5WEO-pyRfhEYbGFnps-4" value="&lt;font style=&quot;font-size: 30px;&quot;&gt;Users&lt;/font&gt;" style="rounded=0;whiteSpace=wrap;html=1;" vertex="1" parent="nU5WEO-pyRfhEYbGFnps-1">
          <mxGeometry x="440" width="220" height="120" as="geometry" />
        </mxCell>
        <mxCell id="nU5WEO-pyRfhEYbGFnps-5" value="&lt;font style=&quot;font-size: 30px;&quot;&gt;My account&lt;/font&gt;" style="rounded=0;whiteSpace=wrap;html=1;" vertex="1" parent="nU5WEO-pyRfhEYbGFnps-1">
          <mxGeometry x="660" width="220" height="120" as="geometry" />
        </mxCell>
        <mxCell id="nU5WEO-pyRfhEYbGFnps-8" value="" style="rounded=0;whiteSpace=wrap;html=1;" vertex="1" parent="nU5WEO-pyRfhEYbGFnps-1">
          <mxGeometry x="880" width="720" height="120" as="geometry" />
        </mxCell>
        <mxCell id="AESAGAB0QDFwSJ0hYpiC-9" value="" style="group" vertex="1" connectable="0" parent="1">
          <mxGeometry x="310" y="170" width="980" height="630" as="geometry" />
        </mxCell>
        <mxCell id="AESAGAB0QDFwSJ0hYpiC-3" value="Track title" style="swimlane;whiteSpace=wrap;html=1;startSize=50;" vertex="1" parent="AESAGAB0QDFwSJ0hYpiC-9">
          <mxGeometry width="300" height="300" as="geometry" />
        </mxCell>
        <mxCell id="AESAGAB0QDFwSJ0hYpiC-4" value="Track title" style="swimlane;whiteSpace=wrap;html=1;startSize=50;" vertex="1" parent="AESAGAB0QDFwSJ0hYpiC-9">
          <mxGeometry x="340" width="300" height="300" as="geometry" />
        </mxCell>
        <mxCell id="aEiWatU-EOPpUOsXl2Mt-3" value="" style="endArrow=none;html=1;rounded=0;entryX=0.999;entryY=0.169;entryDx=0;entryDy=0;entryPerimeter=0;exitX=0;exitY=1;exitDx=0;exitDy=0;" edge="1" parent="AESAGAB0QDFwSJ0hYpiC-4">
          <mxGeometry width="50" height="50" relative="1" as="geometry">
            <mxPoint y="300" as="sourcePoint" />
            <mxPoint x="300" y="51" as="targetPoint" />
          </mxGeometry>
        </mxCell>
        <mxCell id="aEiWatU-EOPpUOsXl2Mt-4" value="" style="endArrow=none;html=1;rounded=0;entryX=1;entryY=1;entryDx=0;entryDy=0;" edge="1" parent="AESAGAB0QDFwSJ0hYpiC-4">
          <mxGeometry width="50" height="50" relative="1" as="geometry">
            <mxPoint y="50" as="sourcePoint" />
            <mxPoint x="300" y="300" as="targetPoint" />
          </mxGeometry>
        </mxCell>
        <mxCell id="AESAGAB0QDFwSJ0hYpiC-5" value="Track title" style="swimlane;whiteSpace=wrap;html=1;startSize=50;" vertex="1" parent="AESAGAB0QDFwSJ0hYpiC-9">
          <mxGeometry x="680" width="300" height="300" as="geometry" />
        </mxCell>
        <mxCell id="aEiWatU-EOPpUOsXl2Mt-5" value="" style="endArrow=none;html=1;rounded=0;entryX=0.999;entryY=0.169;entryDx=0;entryDy=0;entryPerimeter=0;exitX=0;exitY=1;exitDx=0;exitDy=0;" edge="1" parent="AESAGAB0QDFwSJ0hYpiC-5">
          <mxGeometry width="50" height="50" relative="1" as="geometry">
            <mxPoint y="300" as="sourcePoint" />
            <mxPoint x="300" y="51" as="targetPoint" />
          </mxGeometry>
        </mxCell>
        <mxCell id="aEiWatU-EOPpUOsXl2Mt-6" value="" style="endArrow=none;html=1;rounded=0;entryX=1;entryY=1;entryDx=0;entryDy=0;" edge="1" parent="AESAGAB0QDFwSJ0hYpiC-5">
          <mxGeometry width="50" height="50" relative="1" as="geometry">
            <mxPoint y="50" as="sourcePoint" />
            <mxPoint x="300" y="300" as="targetPoint" />
          </mxGeometry>
        </mxCell>
        <mxCell id="AESAGAB0QDFwSJ0hYpiC-6" value="Track title" style="swimlane;whiteSpace=wrap;html=1;startSize=50;" vertex="1" parent="AESAGAB0QDFwSJ0hYpiC-9">
          <mxGeometry y="330" width="300" height="300" as="geometry" />
        </mxCell>
        <mxCell id="aEiWatU-EOPpUOsXl2Mt-7" value="" style="endArrow=none;html=1;rounded=0;entryX=0.999;entryY=0.169;entryDx=0;entryDy=0;entryPerimeter=0;exitX=0;exitY=1;exitDx=0;exitDy=0;" edge="1" parent="AESAGAB0QDFwSJ0hYpiC-6">
          <mxGeometry width="50" height="50" relative="1" as="geometry">
            <mxPoint y="300" as="sourcePoint" />
            <mxPoint x="300" y="51" as="targetPoint" />
          </mxGeometry>
        </mxCell>
        <mxCell id="aEiWatU-EOPpUOsXl2Mt-8" value="" style="endArrow=none;html=1;rounded=0;entryX=1;entryY=1;entryDx=0;entryDy=0;" edge="1" parent="AESAGAB0QDFwSJ0hYpiC-6">
          <mxGeometry width="50" height="50" relative="1" as="geometry">
            <mxPoint y="50" as="sourcePoint" />
            <mxPoint x="300" y="300" as="targetPoint" />
          </mxGeometry>
        </mxCell>
        <mxCell id="AESAGAB0QDFwSJ0hYpiC-7" value="Track title" style="swimlane;whiteSpace=wrap;html=1;startSize=50;" vertex="1" parent="AESAGAB0QDFwSJ0hYpiC-9">
          <mxGeometry x="340" y="330" width="300" height="300" as="geometry" />
        </mxCell>
        <mxCell id="aEiWatU-EOPpUOsXl2Mt-9" value="" style="endArrow=none;html=1;rounded=0;entryX=0.999;entryY=0.169;entryDx=0;entryDy=0;entryPerimeter=0;exitX=0;exitY=1;exitDx=0;exitDy=0;" edge="1" parent="AESAGAB0QDFwSJ0hYpiC-7">
          <mxGeometry width="50" height="50" relative="1" as="geometry">
            <mxPoint y="300" as="sourcePoint" />
            <mxPoint x="300" y="51" as="targetPoint" />
          </mxGeometry>
        </mxCell>
        <mxCell id="aEiWatU-EOPpUOsXl2Mt-10" value="" style="endArrow=none;html=1;rounded=0;entryX=1;entryY=1;entryDx=0;entryDy=0;" edge="1" parent="AESAGAB0QDFwSJ0hYpiC-7">
          <mxGeometry width="50" height="50" relative="1" as="geometry">
            <mxPoint y="50" as="sourcePoint" />
            <mxPoint x="300" y="300" as="targetPoint" />
          </mxGeometry>
        </mxCell>
        <mxCell id="AESAGAB0QDFwSJ0hYpiC-8" value="Track title" style="swimlane;whiteSpace=wrap;html=1;startSize=50;" vertex="1" parent="AESAGAB0QDFwSJ0hYpiC-9">
          <mxGeometry x="680" y="330" width="300" height="300" as="geometry" />
        </mxCell>
        <mxCell id="aEiWatU-EOPpUOsXl2Mt-11" value="" style="endArrow=none;html=1;rounded=0;entryX=0.999;entryY=0.169;entryDx=0;entryDy=0;entryPerimeter=0;exitX=0;exitY=1;exitDx=0;exitDy=0;" edge="1" parent="AESAGAB0QDFwSJ0hYpiC-8">
          <mxGeometry width="50" height="50" relative="1" as="geometry">
            <mxPoint y="300" as="sourcePoint" />
            <mxPoint x="300" y="51" as="targetPoint" />
          </mxGeometry>
        </mxCell>
        <mxCell id="aEiWatU-EOPpUOsXl2Mt-12" value="" style="endArrow=none;html=1;rounded=0;entryX=1;entryY=1;entryDx=0;entryDy=0;" edge="1" parent="AESAGAB0QDFwSJ0hYpiC-8">
          <mxGeometry width="50" height="50" relative="1" as="geometry">
            <mxPoint y="50" as="sourcePoint" />
            <mxPoint x="300" y="300" as="targetPoint" />
          </mxGeometry>
        </mxCell>
        <mxCell id="aEiWatU-EOPpUOsXl2Mt-1" value="" style="endArrow=none;html=1;rounded=0;entryX=0.999;entryY=0.169;entryDx=0;entryDy=0;entryPerimeter=0;exitX=0;exitY=1;exitDx=0;exitDy=0;" edge="1" parent="AESAGAB0QDFwSJ0hYpiC-9" source="AESAGAB0QDFwSJ0hYpiC-3" target="AESAGAB0QDFwSJ0hYpiC-3">
          <mxGeometry width="50" height="50" relative="1" as="geometry">
            <mxPoint x="240" y="380" as="sourcePoint" />
            <mxPoint x="290" y="330" as="targetPoint" />
          </mxGeometry>
        </mxCell>
        <mxCell id="aEiWatU-EOPpUOsXl2Mt-2" value="" style="endArrow=none;html=1;rounded=0;entryX=1;entryY=1;entryDx=0;entryDy=0;" edge="1" parent="AESAGAB0QDFwSJ0hYpiC-9" target="AESAGAB0QDFwSJ0hYpiC-3">
          <mxGeometry width="50" height="50" relative="1" as="geometry">
            <mxPoint y="50" as="sourcePoint" />
            <mxPoint x="310" y="61" as="targetPoint" />
          </mxGeometry>
        </mxCell>
      </root>
    </mxGraphModel>
  </diagram>
  <diagram id="vweFX4xQTWohTpFvRGlf" name="My-account/user-page">
    <mxGraphModel dx="2518" dy="1305" grid="1" gridSize="10" guides="1" tooltips="1" connect="1" arrows="1" fold="1" page="1" pageScale="1" pageWidth="1600" pageHeight="900" math="0" shadow="0">
      <root>
        <mxCell id="0" />
        <mxCell id="1" parent="0" />
        <mxCell id="UzWjRNbc9BqS9BqYA4I_-3" value="" style="group" vertex="1" connectable="0" parent="1">
          <mxGeometry width="1600" height="120" as="geometry" />
        </mxCell>
        <mxCell id="UzWjRNbc9BqS9BqYA4I_-4" value="" style="swimlane;startSize=0;" vertex="1" parent="UzWjRNbc9BqS9BqYA4I_-3">
          <mxGeometry width="1600" height="120" as="geometry" />
        </mxCell>
        <mxCell id="UzWjRNbc9BqS9BqYA4I_-5" value="&lt;font style=&quot;font-size: 30px;&quot;&gt;Home&lt;/font&gt;" style="rounded=0;whiteSpace=wrap;html=1;" vertex="1" parent="UzWjRNbc9BqS9BqYA4I_-4">
          <mxGeometry width="220" height="120" as="geometry" />
        </mxCell>
        <mxCell id="UzWjRNbc9BqS9BqYA4I_-6" value="&lt;font style=&quot;font-size: 30px;&quot;&gt;Tracks&lt;/font&gt;" style="rounded=0;whiteSpace=wrap;html=1;" vertex="1" parent="UzWjRNbc9BqS9BqYA4I_-4">
          <mxGeometry x="220" width="220" height="120" as="geometry" />
        </mxCell>
        <mxCell id="UzWjRNbc9BqS9BqYA4I_-7" value="&lt;font style=&quot;font-size: 30px;&quot;&gt;Users&lt;/font&gt;" style="rounded=0;whiteSpace=wrap;html=1;" vertex="1" parent="UzWjRNbc9BqS9BqYA4I_-4">
          <mxGeometry x="440" width="220" height="120" as="geometry" />
        </mxCell>
        <mxCell id="UzWjRNbc9BqS9BqYA4I_-8" value="&lt;font style=&quot;font-size: 30px;&quot;&gt;My account&lt;/font&gt;" style="rounded=0;whiteSpace=wrap;html=1;" vertex="1" parent="UzWjRNbc9BqS9BqYA4I_-4">
          <mxGeometry x="660" width="220" height="120" as="geometry" />
        </mxCell>
        <mxCell id="UzWjRNbc9BqS9BqYA4I_-9" value="" style="rounded=0;whiteSpace=wrap;html=1;" vertex="1" parent="UzWjRNbc9BqS9BqYA4I_-3">
          <mxGeometry x="880" width="720" height="120" as="geometry" />
        </mxCell>
        <mxCell id="UzWjRNbc9BqS9BqYA4I_-14" value="" style="group" vertex="1" connectable="0" parent="1">
          <mxGeometry x="350" y="190" width="890" height="170" as="geometry" />
        </mxCell>
        <mxCell id="UzWjRNbc9BqS9BqYA4I_-1" value="&lt;span style=&quot;font-size: 34px;&quot;&gt;User name + statistics&lt;/span&gt;" style="rounded=0;whiteSpace=wrap;html=1;" vertex="1" parent="UzWjRNbc9BqS9BqYA4I_-14">
          <mxGeometry x="170" width="720" height="170" as="geometry" />
        </mxCell>
        <mxCell id="UzWjRNbc9BqS9BqYA4I_-10" value="" style="rounded=0;whiteSpace=wrap;html=1;" vertex="1" parent="UzWjRNbc9BqS9BqYA4I_-14">
          <mxGeometry width="170" height="170" as="geometry" />
        </mxCell>
        <mxCell id="UzWjRNbc9BqS9BqYA4I_-11" value="" style="ellipse;whiteSpace=wrap;html=1;aspect=fixed;" vertex="1" parent="UzWjRNbc9BqS9BqYA4I_-14">
          <mxGeometry width="170" height="170" as="geometry" />
        </mxCell>
        <mxCell id="UzWjRNbc9BqS9BqYA4I_-12" value="" style="endArrow=none;html=1;rounded=0;entryX=1;entryY=0;entryDx=0;entryDy=0;exitX=0;exitY=1;exitDx=0;exitDy=0;" edge="1" parent="UzWjRNbc9BqS9BqYA4I_-14" source="UzWjRNbc9BqS9BqYA4I_-11" target="UzWjRNbc9BqS9BqYA4I_-11">
          <mxGeometry width="50" height="50" relative="1" as="geometry">
            <mxPoint x="190" y="220" as="sourcePoint" />
            <mxPoint x="240" y="170" as="targetPoint" />
          </mxGeometry>
        </mxCell>
        <mxCell id="UzWjRNbc9BqS9BqYA4I_-13" value="" style="endArrow=none;html=1;rounded=0;entryX=0;entryY=0;entryDx=0;entryDy=0;exitX=1;exitY=1;exitDx=0;exitDy=0;" edge="1" parent="UzWjRNbc9BqS9BqYA4I_-14" source="UzWjRNbc9BqS9BqYA4I_-11" target="UzWjRNbc9BqS9BqYA4I_-11">
          <mxGeometry width="50" height="50" relative="1" as="geometry">
            <mxPoint x="35" y="155" as="sourcePoint" />
            <mxPoint x="155" y="35" as="targetPoint" />
          </mxGeometry>
        </mxCell>
        <mxCell id="cth986LbKHKPjR2IYU4H-1" value="" style="group" vertex="1" connectable="0" parent="1">
          <mxGeometry x="350" y="420" width="890" height="480" as="geometry" />
        </mxCell>
        <mxCell id="cth986LbKHKPjR2IYU4H-2" value="Track title" style="swimlane;whiteSpace=wrap;html=1;startSize=50;" vertex="1" parent="cth986LbKHKPjR2IYU4H-1">
          <mxGeometry y="10" width="290" height="280" as="geometry" />
        </mxCell>
        <mxCell id="cth986LbKHKPjR2IYU4H-18" value="" style="endArrow=none;html=1;rounded=0;entryX=0.999;entryY=0.169;entryDx=0;entryDy=0;entryPerimeter=0;exitX=0;exitY=1;exitDx=0;exitDy=0;" edge="1" parent="cth986LbKHKPjR2IYU4H-2" source="cth986LbKHKPjR2IYU4H-2">
          <mxGeometry width="50" height="50" relative="1" as="geometry">
            <mxPoint y="291.9" as="sourcePoint" />
            <mxPoint x="289.71000000000004" y="59.22000000000017" as="targetPoint" />
          </mxGeometry>
        </mxCell>
        <mxCell id="cth986LbKHKPjR2IYU4H-19" value="" style="endArrow=none;html=1;rounded=0;entryX=1;entryY=1;entryDx=0;entryDy=0;" edge="1" parent="cth986LbKHKPjR2IYU4H-2" target="cth986LbKHKPjR2IYU4H-2">
          <mxGeometry width="50" height="50" relative="1" as="geometry">
            <mxPoint y="49.99523809523808" as="sourcePoint" />
            <mxPoint x="290" y="291.9" as="targetPoint" />
          </mxGeometry>
        </mxCell>
        <mxCell id="cth986LbKHKPjR2IYU4H-3" value="Track title" style="swimlane;whiteSpace=wrap;html=1;startSize=50;" vertex="1" parent="cth986LbKHKPjR2IYU4H-1">
          <mxGeometry x="308.78" y="10" width="272.45" height="280" as="geometry" />
        </mxCell>
        <mxCell id="cth986LbKHKPjR2IYU4H-4" value="" style="endArrow=none;html=1;rounded=0;entryX=0.999;entryY=0.169;entryDx=0;entryDy=0;entryPerimeter=0;exitX=0;exitY=1;exitDx=0;exitDy=0;" edge="1" parent="cth986LbKHKPjR2IYU4H-3" source="cth986LbKHKPjR2IYU4H-3">
          <mxGeometry width="50" height="50" relative="1" as="geometry">
            <mxPoint y="228.5714285714285" as="sourcePoint" />
            <mxPoint x="272.4489795918368" y="38.857142857142854" as="targetPoint" />
          </mxGeometry>
        </mxCell>
        <mxCell id="cth986LbKHKPjR2IYU4H-5" value="" style="endArrow=none;html=1;rounded=0;entryX=1;entryY=1;entryDx=0;entryDy=0;" edge="1" parent="cth986LbKHKPjR2IYU4H-3" target="cth986LbKHKPjR2IYU4H-3">
          <mxGeometry width="50" height="50" relative="1" as="geometry">
            <mxPoint y="49.99523809523808" as="sourcePoint" />
            <mxPoint x="272.4489795918368" y="240.4714285714285" as="targetPoint" />
          </mxGeometry>
        </mxCell>
        <mxCell id="cth986LbKHKPjR2IYU4H-6" value="Track title" style="swimlane;whiteSpace=wrap;html=1;startSize=50;" vertex="1" parent="cth986LbKHKPjR2IYU4H-1">
          <mxGeometry x="617.55" y="10" width="272.45" height="280" as="geometry" />
        </mxCell>
        <mxCell id="cth986LbKHKPjR2IYU4H-7" value="" style="endArrow=none;html=1;rounded=0;exitX=0;exitY=1;exitDx=0;exitDy=0;" edge="1" parent="cth986LbKHKPjR2IYU4H-6" source="cth986LbKHKPjR2IYU4H-6">
          <mxGeometry width="50" height="50" relative="1" as="geometry">
            <mxPoint y="228.5714285714285" as="sourcePoint" />
            <mxPoint x="272.45000000000005" y="50" as="targetPoint" />
          </mxGeometry>
        </mxCell>
        <mxCell id="cth986LbKHKPjR2IYU4H-8" value="" style="endArrow=none;html=1;rounded=0;entryX=1;entryY=1;entryDx=0;entryDy=0;" edge="1" parent="cth986LbKHKPjR2IYU4H-6" target="cth986LbKHKPjR2IYU4H-6">
          <mxGeometry width="50" height="50" relative="1" as="geometry">
            <mxPoint x="0.4500000000000455" y="50" as="sourcePoint" />
            <mxPoint x="272.4489795918368" y="228.5714285714285" as="targetPoint" />
          </mxGeometry>
        </mxCell>
        <mxCell id="cth986LbKHKPjR2IYU4H-20" value="&lt;font style=&quot;font-size: 29px;&quot;&gt;Current user&#39;s tracks&lt;/font&gt;" style="text;html=1;align=center;verticalAlign=middle;resizable=0;points=[];autosize=1;strokeColor=none;fillColor=none;" vertex="1" parent="1">
          <mxGeometry x="350" y="370" width="290" height="50" as="geometry" />
        </mxCell>
      </root>
    </mxGraphModel>
  </diagram>
  <diagram id="7-6KlhC20ir9LiUL1jlM" name="Users-overview">
    <mxGraphModel dx="2238" dy="1160" grid="1" gridSize="10" guides="1" tooltips="1" connect="1" arrows="1" fold="1" page="1" pageScale="1" pageWidth="1600" pageHeight="900" math="0" shadow="0">
      <root>
        <mxCell id="0" />
        <mxCell id="1" parent="0" />
        <mxCell id="d8PKv602gFIdWMwwcYCk-1" value="" style="group" vertex="1" connectable="0" parent="1">
          <mxGeometry width="1600" height="120" as="geometry" />
        </mxCell>
        <mxCell id="d8PKv602gFIdWMwwcYCk-2" value="" style="swimlane;startSize=0;" vertex="1" parent="d8PKv602gFIdWMwwcYCk-1">
          <mxGeometry width="1600" height="120" as="geometry" />
        </mxCell>
        <mxCell id="d8PKv602gFIdWMwwcYCk-3" value="&lt;font style=&quot;font-size: 30px;&quot;&gt;Home&lt;/font&gt;" style="rounded=0;whiteSpace=wrap;html=1;" vertex="1" parent="d8PKv602gFIdWMwwcYCk-2">
          <mxGeometry width="220" height="120" as="geometry" />
        </mxCell>
        <mxCell id="d8PKv602gFIdWMwwcYCk-4" value="&lt;font style=&quot;font-size: 30px;&quot;&gt;Tracks&lt;/font&gt;" style="rounded=0;whiteSpace=wrap;html=1;" vertex="1" parent="d8PKv602gFIdWMwwcYCk-2">
          <mxGeometry x="220" width="220" height="120" as="geometry" />
        </mxCell>
        <mxCell id="d8PKv602gFIdWMwwcYCk-5" value="&lt;font style=&quot;font-size: 30px;&quot;&gt;Users&lt;/font&gt;" style="rounded=0;whiteSpace=wrap;html=1;" vertex="1" parent="d8PKv602gFIdWMwwcYCk-2">
          <mxGeometry x="440" width="220" height="120" as="geometry" />
        </mxCell>
        <mxCell id="d8PKv602gFIdWMwwcYCk-6" value="&lt;font style=&quot;font-size: 30px;&quot;&gt;My account&lt;/font&gt;" style="rounded=0;whiteSpace=wrap;html=1;" vertex="1" parent="d8PKv602gFIdWMwwcYCk-2">
          <mxGeometry x="660" width="220" height="120" as="geometry" />
        </mxCell>
        <mxCell id="d8PKv602gFIdWMwwcYCk-7" value="" style="rounded=0;whiteSpace=wrap;html=1;" vertex="1" parent="d8PKv602gFIdWMwwcYCk-1">
          <mxGeometry x="880" width="720" height="120" as="geometry" />
        </mxCell>
        <mxCell id="d8PKv602gFIdWMwwcYCk-51" value="" style="group" vertex="1" connectable="0" parent="1">
          <mxGeometry x="450" y="310" width="790" height="100" as="geometry" />
        </mxCell>
        <mxCell id="d8PKv602gFIdWMwwcYCk-31" value="&lt;font style=&quot;font-size: 25px;&quot;&gt;Username + amount of records&lt;/font&gt;" style="rounded=0;whiteSpace=wrap;html=1;" vertex="1" parent="d8PKv602gFIdWMwwcYCk-51">
          <mxGeometry x="100" width="690" height="100" as="geometry" />
        </mxCell>
        <mxCell id="d8PKv602gFIdWMwwcYCk-32" value="" style="rounded=0;whiteSpace=wrap;html=1;" vertex="1" parent="d8PKv602gFIdWMwwcYCk-51">
          <mxGeometry width="100" height="100" as="geometry" />
        </mxCell>
        <mxCell id="d8PKv602gFIdWMwwcYCk-33" value="" style="ellipse;whiteSpace=wrap;html=1;aspect=fixed;" vertex="1" parent="d8PKv602gFIdWMwwcYCk-51">
          <mxGeometry x="10" y="10" width="80" height="80" as="geometry" />
        </mxCell>
        <mxCell id="d8PKv602gFIdWMwwcYCk-34" value="" style="endArrow=none;html=1;rounded=0;entryX=1;entryY=0;entryDx=0;entryDy=0;exitX=0;exitY=1;exitDx=0;exitDy=0;" edge="1" parent="d8PKv602gFIdWMwwcYCk-51" source="d8PKv602gFIdWMwwcYCk-33" target="d8PKv602gFIdWMwwcYCk-33">
          <mxGeometry width="50" height="50" relative="1" as="geometry">
            <mxPoint x="320" y="220" as="sourcePoint" />
            <mxPoint x="370" y="170" as="targetPoint" />
          </mxGeometry>
        </mxCell>
        <mxCell id="d8PKv602gFIdWMwwcYCk-35" value="" style="endArrow=none;html=1;rounded=0;entryX=0;entryY=0;entryDx=0;entryDy=0;exitX=1;exitY=1;exitDx=0;exitDy=0;" edge="1" parent="d8PKv602gFIdWMwwcYCk-51" source="d8PKv602gFIdWMwwcYCk-33" target="d8PKv602gFIdWMwwcYCk-33">
          <mxGeometry width="50" height="50" relative="1" as="geometry">
            <mxPoint x="32" y="88" as="sourcePoint" />
            <mxPoint x="88" y="32" as="targetPoint" />
          </mxGeometry>
        </mxCell>
        <mxCell id="d8PKv602gFIdWMwwcYCk-52" value="" style="group" vertex="1" connectable="0" parent="1">
          <mxGeometry x="450" y="180" width="790" height="100" as="geometry" />
        </mxCell>
        <mxCell id="d8PKv602gFIdWMwwcYCk-26" value="&lt;font style=&quot;font-size: 25px;&quot;&gt;Username + amount of records&lt;/font&gt;" style="rounded=0;whiteSpace=wrap;html=1;" vertex="1" parent="d8PKv602gFIdWMwwcYCk-52">
          <mxGeometry x="100" width="690" height="100" as="geometry" />
        </mxCell>
        <mxCell id="d8PKv602gFIdWMwwcYCk-27" value="" style="rounded=0;whiteSpace=wrap;html=1;" vertex="1" parent="d8PKv602gFIdWMwwcYCk-52">
          <mxGeometry width="100" height="100" as="geometry" />
        </mxCell>
        <mxCell id="d8PKv602gFIdWMwwcYCk-28" value="" style="ellipse;whiteSpace=wrap;html=1;aspect=fixed;" vertex="1" parent="d8PKv602gFIdWMwwcYCk-52">
          <mxGeometry x="10" y="10" width="80" height="80" as="geometry" />
        </mxCell>
        <mxCell id="d8PKv602gFIdWMwwcYCk-29" value="" style="endArrow=none;html=1;rounded=0;entryX=1;entryY=0;entryDx=0;entryDy=0;exitX=0;exitY=1;exitDx=0;exitDy=0;" edge="1" parent="d8PKv602gFIdWMwwcYCk-52" source="d8PKv602gFIdWMwwcYCk-28" target="d8PKv602gFIdWMwwcYCk-28">
          <mxGeometry width="50" height="50" relative="1" as="geometry">
            <mxPoint x="320" y="220" as="sourcePoint" />
            <mxPoint x="370" y="170" as="targetPoint" />
          </mxGeometry>
        </mxCell>
        <mxCell id="d8PKv602gFIdWMwwcYCk-30" value="" style="endArrow=none;html=1;rounded=0;entryX=0;entryY=0;entryDx=0;entryDy=0;exitX=1;exitY=1;exitDx=0;exitDy=0;" edge="1" parent="d8PKv602gFIdWMwwcYCk-52" source="d8PKv602gFIdWMwwcYCk-28" target="d8PKv602gFIdWMwwcYCk-28">
          <mxGeometry width="50" height="50" relative="1" as="geometry">
            <mxPoint x="32" y="88" as="sourcePoint" />
            <mxPoint x="88" y="32" as="targetPoint" />
          </mxGeometry>
        </mxCell>
        <mxCell id="d8PKv602gFIdWMwwcYCk-53" value="v" style="group" vertex="1" connectable="0" parent="1">
          <mxGeometry x="450" y="560" width="790" height="100" as="geometry" />
        </mxCell>
        <mxCell id="d8PKv602gFIdWMwwcYCk-54" value="&lt;font style=&quot;font-size: 25px;&quot;&gt;Username + amount of records&lt;/font&gt;" style="rounded=0;whiteSpace=wrap;html=1;" vertex="1" parent="d8PKv602gFIdWMwwcYCk-53">
          <mxGeometry x="100" width="690" height="100" as="geometry" />
        </mxCell>
        <mxCell id="d8PKv602gFIdWMwwcYCk-55" value="" style="rounded=0;whiteSpace=wrap;html=1;" vertex="1" parent="d8PKv602gFIdWMwwcYCk-53">
          <mxGeometry width="100" height="100" as="geometry" />
        </mxCell>
        <mxCell id="d8PKv602gFIdWMwwcYCk-56" value="" style="ellipse;whiteSpace=wrap;html=1;aspect=fixed;" vertex="1" parent="d8PKv602gFIdWMwwcYCk-53">
          <mxGeometry x="10" y="10" width="80" height="80" as="geometry" />
        </mxCell>
        <mxCell id="d8PKv602gFIdWMwwcYCk-57" value="" style="endArrow=none;html=1;rounded=0;entryX=1;entryY=0;entryDx=0;entryDy=0;exitX=0;exitY=1;exitDx=0;exitDy=0;" edge="1" parent="d8PKv602gFIdWMwwcYCk-53" source="d8PKv602gFIdWMwwcYCk-56" target="d8PKv602gFIdWMwwcYCk-56">
          <mxGeometry width="50" height="50" relative="1" as="geometry">
            <mxPoint x="320" y="220" as="sourcePoint" />
            <mxPoint x="370" y="170" as="targetPoint" />
          </mxGeometry>
        </mxCell>
        <mxCell id="d8PKv602gFIdWMwwcYCk-58" value="" style="endArrow=none;html=1;rounded=0;entryX=0;entryY=0;entryDx=0;entryDy=0;exitX=1;exitY=1;exitDx=0;exitDy=0;" edge="1" parent="d8PKv602gFIdWMwwcYCk-53" source="d8PKv602gFIdWMwwcYCk-56" target="d8PKv602gFIdWMwwcYCk-56">
          <mxGeometry width="50" height="50" relative="1" as="geometry">
            <mxPoint x="32" y="88" as="sourcePoint" />
            <mxPoint x="88" y="32" as="targetPoint" />
          </mxGeometry>
        </mxCell>
        <mxCell id="d8PKv602gFIdWMwwcYCk-59" value="" style="group" vertex="1" connectable="0" parent="1">
          <mxGeometry x="450" y="430" width="790" height="100" as="geometry" />
        </mxCell>
        <mxCell id="d8PKv602gFIdWMwwcYCk-60" value="&lt;font style=&quot;font-size: 25px;&quot;&gt;Username + amount of records&lt;/font&gt;" style="rounded=0;whiteSpace=wrap;html=1;" vertex="1" parent="d8PKv602gFIdWMwwcYCk-59">
          <mxGeometry x="100" width="690" height="100" as="geometry" />
        </mxCell>
        <mxCell id="d8PKv602gFIdWMwwcYCk-61" value="" style="rounded=0;whiteSpace=wrap;html=1;" vertex="1" parent="d8PKv602gFIdWMwwcYCk-59">
          <mxGeometry width="100" height="100" as="geometry" />
        </mxCell>
        <mxCell id="d8PKv602gFIdWMwwcYCk-62" value="" style="ellipse;whiteSpace=wrap;html=1;aspect=fixed;" vertex="1" parent="d8PKv602gFIdWMwwcYCk-59">
          <mxGeometry x="10" y="10" width="80" height="80" as="geometry" />
        </mxCell>
        <mxCell id="d8PKv602gFIdWMwwcYCk-63" value="" style="endArrow=none;html=1;rounded=0;entryX=1;entryY=0;entryDx=0;entryDy=0;exitX=0;exitY=1;exitDx=0;exitDy=0;" edge="1" parent="d8PKv602gFIdWMwwcYCk-59" source="d8PKv602gFIdWMwwcYCk-62" target="d8PKv602gFIdWMwwcYCk-62">
          <mxGeometry width="50" height="50" relative="1" as="geometry">
            <mxPoint x="320" y="220" as="sourcePoint" />
            <mxPoint x="370" y="170" as="targetPoint" />
          </mxGeometry>
        </mxCell>
        <mxCell id="d8PKv602gFIdWMwwcYCk-64" value="" style="endArrow=none;html=1;rounded=0;entryX=0;entryY=0;entryDx=0;entryDy=0;exitX=1;exitY=1;exitDx=0;exitDy=0;" edge="1" parent="d8PKv602gFIdWMwwcYCk-59" source="d8PKv602gFIdWMwwcYCk-62" target="d8PKv602gFIdWMwwcYCk-62">
          <mxGeometry width="50" height="50" relative="1" as="geometry">
            <mxPoint x="32" y="88" as="sourcePoint" />
            <mxPoint x="88" y="32" as="targetPoint" />
          </mxGeometry>
        </mxCell>
        <mxCell id="d8PKv602gFIdWMwwcYCk-65" value="v" style="group" vertex="1" connectable="0" parent="1">
          <mxGeometry x="450" y="680" width="790" height="100" as="geometry" />
        </mxCell>
        <mxCell id="d8PKv602gFIdWMwwcYCk-66" value="&lt;font style=&quot;font-size: 25px;&quot;&gt;Username + amount of records&lt;/font&gt;" style="rounded=0;whiteSpace=wrap;html=1;" vertex="1" parent="d8PKv602gFIdWMwwcYCk-65">
          <mxGeometry x="100" width="690" height="100" as="geometry" />
        </mxCell>
        <mxCell id="d8PKv602gFIdWMwwcYCk-67" value="" style="rounded=0;whiteSpace=wrap;html=1;" vertex="1" parent="d8PKv602gFIdWMwwcYCk-65">
          <mxGeometry width="100" height="100" as="geometry" />
        </mxCell>
        <mxCell id="d8PKv602gFIdWMwwcYCk-68" value="" style="ellipse;whiteSpace=wrap;html=1;aspect=fixed;" vertex="1" parent="d8PKv602gFIdWMwwcYCk-65">
          <mxGeometry x="10" y="10" width="80" height="80" as="geometry" />
        </mxCell>
        <mxCell id="d8PKv602gFIdWMwwcYCk-69" value="" style="endArrow=none;html=1;rounded=0;entryX=1;entryY=0;entryDx=0;entryDy=0;exitX=0;exitY=1;exitDx=0;exitDy=0;" edge="1" parent="d8PKv602gFIdWMwwcYCk-65" source="d8PKv602gFIdWMwwcYCk-68" target="d8PKv602gFIdWMwwcYCk-68">
          <mxGeometry width="50" height="50" relative="1" as="geometry">
            <mxPoint x="320" y="220" as="sourcePoint" />
            <mxPoint x="370" y="170" as="targetPoint" />
          </mxGeometry>
        </mxCell>
        <mxCell id="d8PKv602gFIdWMwwcYCk-70" value="" style="endArrow=none;html=1;rounded=0;entryX=0;entryY=0;entryDx=0;entryDy=0;exitX=1;exitY=1;exitDx=0;exitDy=0;" edge="1" parent="d8PKv602gFIdWMwwcYCk-65" source="d8PKv602gFIdWMwwcYCk-68" target="d8PKv602gFIdWMwwcYCk-68">
          <mxGeometry width="50" height="50" relative="1" as="geometry">
            <mxPoint x="32" y="88" as="sourcePoint" />
            <mxPoint x="88" y="32" as="targetPoint" />
          </mxGeometry>
        </mxCell>
        <mxCell id="d8PKv602gFIdWMwwcYCk-71" value="v" style="group" vertex="1" connectable="0" parent="1">
          <mxGeometry x="450" y="800" width="790" height="100" as="geometry" />
        </mxCell>
        <mxCell id="d8PKv602gFIdWMwwcYCk-72" value="&lt;font style=&quot;font-size: 25px;&quot;&gt;Username + amount of records&lt;/font&gt;" style="rounded=0;whiteSpace=wrap;html=1;" vertex="1" parent="d8PKv602gFIdWMwwcYCk-71">
          <mxGeometry x="100" width="690" height="100" as="geometry" />
        </mxCell>
        <mxCell id="d8PKv602gFIdWMwwcYCk-73" value="" style="rounded=0;whiteSpace=wrap;html=1;" vertex="1" parent="d8PKv602gFIdWMwwcYCk-71">
          <mxGeometry width="100" height="100" as="geometry" />
        </mxCell>
        <mxCell id="d8PKv602gFIdWMwwcYCk-74" value="" style="ellipse;whiteSpace=wrap;html=1;aspect=fixed;" vertex="1" parent="d8PKv602gFIdWMwwcYCk-71">
          <mxGeometry x="10" y="10" width="80" height="80" as="geometry" />
        </mxCell>
        <mxCell id="d8PKv602gFIdWMwwcYCk-75" value="" style="endArrow=none;html=1;rounded=0;entryX=1;entryY=0;entryDx=0;entryDy=0;exitX=0;exitY=1;exitDx=0;exitDy=0;" edge="1" parent="d8PKv602gFIdWMwwcYCk-71" source="d8PKv602gFIdWMwwcYCk-74" target="d8PKv602gFIdWMwwcYCk-74">
          <mxGeometry width="50" height="50" relative="1" as="geometry">
            <mxPoint x="320" y="220" as="sourcePoint" />
            <mxPoint x="370" y="170" as="targetPoint" />
          </mxGeometry>
        </mxCell>
        <mxCell id="d8PKv602gFIdWMwwcYCk-76" value="" style="endArrow=none;html=1;rounded=0;entryX=0;entryY=0;entryDx=0;entryDy=0;exitX=1;exitY=1;exitDx=0;exitDy=0;" edge="1" parent="d8PKv602gFIdWMwwcYCk-71" source="d8PKv602gFIdWMwwcYCk-74" target="d8PKv602gFIdWMwwcYCk-74">
          <mxGeometry width="50" height="50" relative="1" as="geometry">
            <mxPoint x="32" y="88" as="sourcePoint" />
            <mxPoint x="88" y="32" as="targetPoint" />
          </mxGeometry>
        </mxCell>
        <mxCell id="d8PKv602gFIdWMwwcYCk-78" value="" style="edgeStyle=orthogonalEdgeStyle;rounded=0;orthogonalLoop=1;jettySize=auto;html=1;" edge="1" parent="1" source="d8PKv602gFIdWMwwcYCk-26" target="d8PKv602gFIdWMwwcYCk-79">
          <mxGeometry relative="1" as="geometry">
            <mxPoint x="1370" y="230" as="targetPoint" />
          </mxGeometry>
        </mxCell>
        <mxCell id="d8PKv602gFIdWMwwcYCk-79" value="Directs to that user&#39;s page" style="ellipse;whiteSpace=wrap;html=1;" vertex="1" parent="1">
          <mxGeometry x="1310" y="190" width="120" height="80" as="geometry" />
        </mxCell>
      </root>
    </mxGraphModel>
  </diagram>
</mxfile>
